<?xml version="1.0" standalone="no"?>
<!DOCTYPE svg PUBLIC "-//W3C//DTD SVG 20010904//EN"
 "http://www.w3.org/TR/2001/REC-SVG-20010904/DTD/svg10.dtd">
<svg version="1.0" xmlns="http://www.w3.org/2000/svg"
 width="128.000000pt" height="128.000000pt" viewBox="0 0 128.000000 128.000000"
 preserveAspectRatio="xMidYMid meet">
<metadata>
Created by potrace 1.16, written by Peter Selinger 2001-2019
</metadata>
<g transform="translate(0.000000,128.000000) scale(0.100000,-0.100000)"
fill="#000000" stroke="none">
<path d="M585 1266 c-77 -33 -149 -161 -179 -318 -13 -66 -13 -66 11 -77 13
-6 29 -11 35 -11 6 0 17 -8 24 -17 13 -17 15 -17 25 0 8 13 23 17 69 17 l60 0
0 -50 c0 -49 -1 -50 -31 -50 -34 0 -31 -16 7 -30 18 -7 24 -17 24 -40 0 -16 4
-30 9 -30 11 0 21 25 21 51 0 10 6 19 14 19 7 0 19 7 26 15 11 13 8 15 -14 15
-25 0 -26 3 -26 50 l0 50 55 0 c48 0 55 -2 55 -20 0 -13 5 -18 15 -14 8 4 15
12 15 20 0 8 9 14 20 14 10 0 30 5 43 11 24 11 24 11 11 77 -46 238 -167 371
-289 318z m45 -72 l0 -44 -55 0 c-30 0 -55 3 -55 6 0 27 83 99 102 88 4 -3 8
-25 8 -50z m96 12 c19 -19 34 -39 34 -45 0 -7 -20 -11 -50 -11 l-50 0 0 45 c0
56 18 59 66 11z m-96 -136 l0 -51 -62 3 -63 3 -3 48 -3 47 65 0 66 0 0 -50z
m140 0 l0 -50 -55 0 -55 0 0 50 0 50 55 0 55 0 0 -50z m50 -37 c0 -7 -4 -13
-10 -13 -5 0 -10 12 -10 28 0 21 2 24 10 12 5 -8 10 -21 10 -27z m-347 7 c-3
-12 -8 -19 -11 -16 -5 6 5 36 12 36 2 0 2 -9 -1 -20z m-3 -100 c0 -43 -3 -50
-20 -50 -22 0 -25 15 -14 69 11 52 34 39 34 -19z m160 0 l0 -50 -65 0 -65 0 0
43 c0 24 3 47 7 50 3 4 33 7 65 7 l58 0 0 -50z m140 0 l0 -50 -55 0 -55 0 0
50 0 50 55 0 55 0 0 -50z m77 0 l10 -50 -28 0 c-28 0 -29 2 -29 50 0 42 3 50
19 50 14 0 21 -11 28 -50z"/>
<path d="M252 868 c44 -115 60 -192 68 -345 6 -89 17 -197 25 -240 19 -97 69
-197 116 -235 77 -62 281 -62 358 0 47 38 97 138 116 235 8 43 19 151 25 240
8 153 24 230 68 345 4 13 -3 14 -42 9 -61 -9 -146 -51 -204 -102 -55 -48 -119
-144 -128 -191 -3 -19 -10 -34 -14 -34 -4 0 -11 15 -14 34 -9 47 -73 143 -128
191 -58 51 -143 93 -204 102 -39 5 -46 4 -42 -9z m220 -265 c63 -67 108 -201
108 -325 0 -63 -3 -78 -15 -78 -12 0 -15 14 -15 68 0 119 -41 245 -104 320
-15 16 -26 33 -26 36 0 15 29 3 52 -21z m398 21 c0 -3 -11 -20 -26 -36 -63
-75 -104 -201 -104 -320 0 -54 -3 -68 -15 -68 -16 0 -18 20 -15 113 3 100 47
220 103 283 26 30 57 45 57 28z"/>
</g>
</svg>
