<?xml version="1.0" standalone="no"?>
<!DOCTYPE svg PUBLIC "-//W3C//DTD SVG 20010904//EN"
 "http://www.w3.org/TR/2001/REC-SVG-20010904/DTD/svg10.dtd">
<svg version="1.0" xmlns="http://www.w3.org/2000/svg"
 width="128.000000pt" height="128.000000pt" viewBox="0 0 128.000000 128.000000"
 preserveAspectRatio="xMidYMid meet">
<metadata>
Created by potrace 1.16, written by Peter Selinger 2001-2019
</metadata>
<g transform="translate(0.000000,128.000000) scale(0.100000,-0.100000)"
fill="#000000" stroke="none">
<path d="M602 1216 c-35 -59 -42 -115 -17 -136 19 -16 92 -15 111 1 24 20 16
77 -18 135 -18 29 -35 54 -38 54 -3 0 -20 -24 -38 -54z"/>
<path d="M334 1079 c3 -13 13 -55 21 -93 16 -74 45 -130 75 -146 50 -27 125 2
155 60 21 40 19 73 -6 104 -28 35 -65 53 -146 70 -37 8 -77 18 -87 22 -17 6
-18 4 -12 -17z"/>
<path d="M880 1084 c-117 -30 -135 -37 -167 -69 -37 -37 -42 -69 -18 -115 30
-58 105 -87 155 -60 30 16 59 72 75 146 8 38 17 79 21 92 7 25 9 25 -66 6z"/>
<path d="M625 762 c-4 -48 -9 -90 -12 -94 -2 -4 -19 8 -38 27 -19 19 -45 39
-56 46 -20 10 -19 8 4 -23 15 -19 36 -56 48 -83 26 -59 26 -149 1 -370 l-17
-149 -60 -2 c-67 -1 -107 -18 -145 -60 -22 -24 -22 -26 -5 -19 69 27 96 29
175 12 44 -9 116 -25 159 -34 67 -15 89 -15 136 -6 59 13 108 42 126 74 10 20
10 20 -17 2 -21 -14 -46 -18 -102 -17 -40 1 -78 6 -83 11 -6 6 -21 105 -33
220 -30 268 -23 322 51 422 24 31 24 32 4 22 -11 -7 -37 -27 -56 -46 -19 -19
-36 -35 -38 -35 -3 0 -8 40 -11 90 -4 49 -11 92 -16 95 -4 2 -11 -35 -15 -83z"/>
<path d="M330 832 c-8 -4 -37 -20 -63 -36 l-49 -29 47 -29 c84 -53 134 -58
155 -18 37 69 -23 142 -90 112z"/>
<path d="M871 821 c-38 -38 -24 -113 23 -125 29 -7 58 3 120 42 l47 28 -53 33
c-69 43 -109 50 -137 22z"/>
<path d="M384 641 c-37 -23 -59 -67 -78 -157 -8 -38 -17 -76 -21 -85 -5 -13
10 -12 100 11 85 21 113 33 137 57 52 52 36 128 -37 173 -40 25 -61 25 -101 1z"/>
<path d="M793 640 c-71 -47 -86 -121 -35 -173 24 -24 52 -36 137 -57 90 -23
105 -24 100 -11 -4 9 -13 47 -21 85 -25 118 -55 163 -115 172 -24 3 -43 -2
-66 -16z"/>
</g>
</svg>
