<?xml version="1.0" standalone="no"?>
<!DOCTYPE svg PUBLIC "-//W3C//DTD SVG 20010904//EN"
 "http://www.w3.org/TR/2001/REC-SVG-20010904/DTD/svg10.dtd">
<svg version="1.0" xmlns="http://www.w3.org/2000/svg"
 width="338.000000pt" height="338.000000pt" viewBox="0 0 338.000000 338.000000"
 preserveAspectRatio="xMidYMid meet">
<metadata>
Created by potrace 1.16, written by Peter Selinger 2001-2019
</metadata>
<g transform="translate(0.000000,338.000000) scale(0.100000,-0.100000)"
fill="#000000" stroke="none">
<path d="M1738 2430 c-187 -30 -281 -71 -520 -227 -115 -75 -241 -137 -323
-158 -33 -8 -116 -22 -185 -30 -69 -8 -152 -22 -184 -30 -198 -52 -335 -153
-408 -303 -18 -37 -52 -84 -76 -106 -29 -26 -41 -45 -37 -55 4 -9 10 -73 14
-143 6 -97 13 -134 28 -160 23 -39 77 -78 109 -78 22 0 23 3 23 68 0 37 3 81
7 97 13 54 51 119 96 162 140 136 356 130 488 -14 66 -72 92 -144 88 -240 l-3
-73 580 0 c319 0 711 3 871 7 l291 6 0 72 c0 116 61 226 162 289 134 85 304
64 419 -51 65 -66 94 -130 100 -220 5 -75 7 -78 49 -67 49 13 66 151 37 292
-21 104 -38 139 -87 190 l-42 43 3 112 c4 127 -8 172 -73 273 l-35 55 37 14
c82 32 108 50 111 75 5 46 -16 60 -108 70 -47 6 -121 19 -165 30 -102 25 -341
65 -515 85 -157 19 -666 29 -752 15z"/>
<path d="M429 1495 c-64 -20 -141 -92 -168 -156 -60 -138 -2 -300 133 -372 58
-31 193 -31 251 0 168 90 210 318 82 451 -73 77 -199 109 -298 77z"/>
<path d="M2844 1492 c-133 -47 -213 -187 -185 -324 48 -228 337 -307 489 -133
48 54 65 94 70 166 6 83 -15 150 -64 207 -72 84 -207 121 -310 84z"/>
</g>
</svg>
