<?xml version="1.0" standalone="no"?>
<!DOCTYPE svg PUBLIC "-//W3C//DTD SVG 20010904//EN"
 "http://www.w3.org/TR/2001/REC-SVG-20010904/DTD/svg10.dtd">
<svg version="1.0" xmlns="http://www.w3.org/2000/svg"
 width="338.000000pt" height="338.000000pt" viewBox="0 0 338.000000 338.000000"
 preserveAspectRatio="xMidYMid meet">
<metadata>
Created by potrace 1.16, written by Peter Selinger 2001-2019
</metadata>
<g transform="translate(0.000000,338.000000) scale(0.100000,-0.100000)"
fill="#000000" stroke="none">
<path d="M192 2768 c-7 -7 -33 -15 -59 -18 -44 -5 -48 -7 -54 -40 -4 -19 -17
-42 -28 -51 -24 -19 -27 -39 -9 -57 7 -7 15 -33 18 -59 5 -44 7 -48 40 -54 19
-4 41 -17 49 -28 15 -23 41 -27 59 -9 7 7 33 15 59 18 44 5 48 7 54 40 4 19
17 41 28 49 24 16 26 38 6 65 -8 11 -15 36 -15 57 0 38 -12 49 -51 49 -10 0
-26 11 -35 25 -18 27 -43 32 -62 13z m62 -97 c48 -42 36 -116 -24 -141 -28
-12 -36 -11 -66 5 -56 30 -64 96 -18 136 37 32 71 32 108 0z"/>
<path d="M457 2500 c-14 -17 -25 -19 -51 -14 -30 5 -36 3 -48 -23 -8 -17 -23
-29 -38 -31 -35 -5 -50 -20 -50 -49 0 -16 -10 -29 -31 -41 -27 -15 -30 -21
-25 -53 5 -28 1 -40 -14 -54 -21 -19 -26 -50 -10 -60 14 -8 13 -41 -2 -65 -10
-16 -8 -23 16 -44 15 -15 25 -30 21 -35 -11 -18 -134 -81 -157 -81 -30 0 -68
-38 -68 -69 0 -30 43 -71 76 -71 18 0 38 13 63 38 20 22 60 53 88 70 l53 32
14 -35 c13 -29 20 -35 45 -35 22 0 35 -7 47 -26 15 -22 22 -25 51 -19 25 4 40
1 60 -15 25 -20 26 -20 56 -1 24 15 34 17 58 7 27 -9 32 -8 52 16 15 18 34 28
57 30 27 2 35 8 40 28 3 15 18 31 37 40 27 12 33 21 33 47 0 22 8 38 25 51 22
18 25 25 19 61 -5 32 -3 46 11 61 18 20 18 21 -4 44 -18 19 -21 30 -15 62 5
36 3 41 -20 52 -15 7 -28 23 -32 39 -10 49 -13 53 -34 53 -13 0 -28 13 -42 36
-18 31 -25 35 -50 30 -23 -5 -34 0 -53 20 -23 25 -27 26 -55 14 -24 -10 -37
-10 -56 -1 -35 16 -47 14 -67 -9z m164 -85 c102 -35 169 -123 177 -235 4 -61
1 -76 -22 -124 -51 -103 -155 -164 -261 -153 -74 8 -176 62 -161 86 5 8 15 5
34 -10 66 -52 172 -65 247 -30 47 21 98 71 120 116 22 47 20 156 -4 203 -93
181 -351 176 -431 -10 -19 -44 -22 -64 -17 -120 3 -38 2 -68 -3 -68 -16 0 -32
82 -25 124 27 170 190 274 346 221z m19 -69 c66 -33 105 -100 105 -180 -1 -67
-16 -105 -61 -150 -43 -42 -81 -58 -143 -59 -56 0 -141 32 -141 53 0 5 19 20
43 33 31 18 52 23 79 20 32 -4 42 0 68 25 44 44 40 81 -4 47 -28 -21 -52 -19
-70 7 -18 25 -9 48 28 67 30 16 25 31 -10 31 -46 0 -93 -36 -94 -72 0 -15 -77
-68 -99 -68 -17 0 -13 116 5 153 22 43 53 76 89 95 71 37 130 36 205 -2z
m-546 -432 c22 -8 20 -51 -2 -63 -25 -13 -52 5 -52 34 0 29 22 41 54 29z"/>
<path d="M1358 2500 c-126 -21 -252 -133 -332 -293 -45 -91 -96 -246 -96 -294
0 -25 -24 -52 -84 -93 -42 -29 -120 -127 -143 -179 -41 -97 -48 -136 -48 -276
0 -121 3 -149 23 -207 23 -67 84 -171 115 -197 15 -12 17 -37 17 -187 l0 -174
215 0 215 0 0 105 0 105 770 0 770 0 0 -105 0 -105 218 0 217 0 -3 168 -3 167
34 40 c117 138 163 349 118 539 -35 146 -103 253 -204 321 l-51 34 -22 99
c-64 283 -211 478 -399 526 -51 14 -148 16 -670 15 -335 -1 -631 -5 -657 -9z
m1337 -143 c95 -45 186 -169 239 -329 35 -103 34 -108 -13 -108 -42 0 -51 11
-51 58 -1 93 -109 200 -220 220 -97 18 -179 -8 -246 -76 -44 -46 -61 -77 -75
-141 l-10 -50 -627 -3 c-345 -2 -628 -3 -629 -2 -2 0 6 33 17 73 49 177 160
328 268 367 29 10 173 13 667 13 l630 1 50 -23z m7 -267 c45 -30 77 -78 85
-124 l6 -36 -192 0 -191 0 0 28 c0 44 51 115 101 141 58 29 142 25 191 -9z
m-1515 -555 c50 -21 72 -42 94 -90 36 -78 19 -156 -44 -212 -107 -94 -259 -45
-296 95 -15 55 -1 110 42 159 54 62 129 79 204 48z m1790 0 c48 -20 71 -41 94
-87 37 -73 20 -159 -44 -215 -49 -43 -108 -59 -162 -43 -139 42 -186 190 -92
297 54 62 129 79 204 48z m-418 -75 c25 -13 33 -37 21 -61 -10 -18 -28 -19
-564 -19 -478 0 -555 2 -566 15 -16 19 -5 62 18 68 36 10 1074 7 1091 -3z m0
-160 c25 -13 33 -37 21 -61 -10 -18 -28 -19 -563 -19 -417 0 -556 3 -565 12
-17 17 -15 44 4 62 14 14 77 16 550 16 328 0 542 -4 553 -10z"/>
</g>
</svg>
