<?xml version="1.0" standalone="no"?>
<!DOCTYPE svg PUBLIC "-//W3C//DTD SVG 20010904//EN"
 "http://www.w3.org/TR/2001/REC-SVG-20010904/DTD/svg10.dtd">
<svg version="1.0" xmlns="http://www.w3.org/2000/svg"
 width="338.000000pt" height="338.000000pt" viewBox="0 0 338.000000 338.000000"
 preserveAspectRatio="xMidYMid meet">
<metadata>
Created by potrace 1.16, written by Peter Selinger 2001-2019
</metadata>
<g transform="translate(0.000000,338.000000) scale(0.100000,-0.100000)"
fill="#000000" stroke="none">
<path d="M29 3191 c-16 -16 -29 -39 -29 -51 0 -17 22 -73 33 -82 1 -1 85 -4
186 -7 l184 -6 8 -25 c26 -87 142 -461 224 -725 53 -170 114 -366 135 -435
132 -436 244 -788 256 -807 8 -12 31 -27 51 -33 27 -8 319 -10 970 -8 l933 3
24 25 c22 21 34 64 81 274 30 137 55 256 55 263 0 8 -13 28 -29 44 -21 21 -39
29 -64 29 -62 0 -76 -30 -126 -258 l-44 -202 -858 0 -858 0 -9 32 c-5 18 -51
166 -102 328 -50 162 -129 417 -175 565 -168 546 -295 952 -314 1010 -32 96
-28 95 -283 95 l-220 0 -29 -29z"/>
<path d="M1109 2781 c-36 -37 -38 -79 -5 -118 l24 -28 247 -3 246 -3 47 34
c124 90 237 128 403 134 105 4 139 2 208 -16 89 -22 179 -64 254 -117 l47 -34
301 0 300 0 -6 -42 c-4 -24 -32 -178 -64 -343 l-56 -300 -173 0 -173 0 -5 -25
c-6 -27 -29 -106 -40 -133 -6 -16 13 -17 244 -17 246 0 251 0 277 23 24 21 31
52 111 482 78 415 85 462 72 485 -7 13 -25 30 -38 37 -20 10 -262 13 -1108 13
l-1084 0 -29 -29z"/>
<path d="M1970 2695 c-169 -38 -318 -160 -389 -316 -147 -327 31 -702 379
-794 173 -46 380 6 517 129 75 69 122 138 158 236 24 64 28 91 29 185 0 82 -4
124 -18 165 -81 242 -278 395 -521 406 -57 2 -114 -2 -155 -11z m178 -54 c11
-16 27 -45 36 -65 l15 -36 -100 0 c-99 0 -100 0 -94 23 11 34 44 85 66 101 27
18 52 11 77 -23z m-164 -38 c-13 -27 -24 -53 -24 -59 0 -10 -120 -46 -129 -39
-8 8 67 88 108 115 63 42 72 39 45 -17z m279 12 c44 -34 110 -105 103 -112 -9
-9 -129 33 -134 46 -5 15 -32 78 -40 94 -10 19 30 4 71 -28z m-393 -5 c0 -5
-4 -10 -9 -10 -5 0 -30 -31 -56 -70 -26 -38 -50 -70 -55 -70 -5 0 -39 -23 -75
-50 l-66 -50 23 42 c32 58 113 144 172 184 53 36 66 40 66 24z m511 -18 c70
-45 115 -88 159 -154 48 -73 51 -93 8 -51 -18 17 -52 42 -75 57 -24 14 -54 44
-68 65 -13 22 -38 56 -56 75 -38 43 -28 46 32 8z m-188 -91 c20 -8 26 -20 35
-80 7 -38 12 -76 12 -83 0 -10 -31 -13 -142 -11 l-143 2 2 28 c2 15 8 54 14
85 9 45 16 58 33 61 42 8 165 7 189 -2z m-257 -53 c-4 -24 -10 -62 -13 -85 -6
-41 -6 -42 -52 -49 -25 -3 -63 -10 -83 -14 -45 -9 -47 -1 -22 76 21 63 28 70
94 94 80 28 84 27 76 -22z m424 12 c43 -17 46 -21 69 -89 13 -39 22 -73 20
-75 -4 -4 -160 22 -166 28 -2 2 -8 28 -12 57 -5 30 -13 67 -16 83 -8 28 -7 28
26 21 19 -4 54 -15 79 -25z m-638 -116 c-17 -67 -10 -61 -136 -113 -5 -2 4 20
20 49 24 44 119 138 129 128 2 -2 -4 -31 -13 -64z m832 -14 c38 -43 63 -86 54
-95 -3 -3 -18 1 -34 10 -16 8 -41 19 -55 24 -20 7 -29 21 -42 70 -9 33 -17 63
-17 67 0 11 57 -35 94 -76z m-304 -189 l0 -150 -56 -7 c-63 -7 -231 0 -242 11
-10 9 -15 198 -7 251 l6 44 150 0 149 0 0 -149z m-340 -5 l0 -145 -37 6 c-21
4 -60 11 -88 17 l-50 11 -3 112 -3 112 43 11 c24 6 48 13 53 15 6 2 27 4 48 4
l37 1 0 -144z m485 131 c49 -11 60 -17 66 -37 9 -32 11 -139 3 -177 -5 -27
-11 -31 -67 -41 -34 -6 -73 -13 -86 -14 l-25 -3 0 143 -1 142 25 0 c14 -1 52
-6 85 -13z m-700 -127 c0 -95 -1 -99 -20 -94 -37 12 -70 32 -95 59 -23 24 -24
28 -9 53 12 22 98 81 119 82 3 0 5 -45 5 -100z m894 57 c44 -34 53 -73 24 -99
-18 -15 -97 -58 -108 -58 -3 0 -5 45 -5 100 l0 100 37 -15 c20 -9 44 -21 52
-28z m-954 -170 c22 -10 47 -21 55 -26 14 -8 53 -121 45 -129 -9 -9 -94 69
-124 114 -30 46 -39 70 -23 62 4 -2 25 -12 47 -21z m955 -32 c-21 -35 -119
-129 -127 -122 -2 3 4 31 13 64 16 58 18 60 73 84 31 14 57 22 59 17 2 -4 -6
-24 -18 -43z m-694 -35 c19 0 22 -9 32 -82 7 -45 10 -84 7 -87 -3 -3 -37 5
-75 18 -64 22 -69 26 -85 66 -9 24 -18 59 -22 78 l-5 34 63 -13 c35 -8 73 -14
85 -14z m549 -2 c-29 -102 -40 -121 -82 -139 -23 -10 -59 -21 -79 -25 -37 -7
-37 -7 -30 22 4 16 12 53 17 83 4 29 10 55 11 56 6 4 114 22 141 24 25 1 28
-2 22 -21z m-205 -26 c0 -33 -23 -137 -33 -149 -10 -14 -193 -18 -213 -5 -10
6 -25 60 -38 140 l-5 32 144 0 c134 0 145 -1 145 -18z m305 -86 c-48 -72 -139
-156 -170 -156 -23 0 -23 2 21 64 25 36 53 67 62 70 10 3 40 26 67 50 28 24
51 40 53 35 2 -5 -13 -33 -33 -63z m-809 -21 c16 -9 43 -38 60 -64 16 -25 42
-61 59 -80 l30 -35 -52 29 c-58 31 -154 123 -190 182 -33 55 -29 59 20 20 23
-19 56 -42 73 -52z m157 -64 c56 -17 60 -20 87 -77 16 -32 27 -60 25 -62 -15
-15 -175 121 -175 148 0 12 -6 13 63 -9z m466 2 c-44 -59 -63 -73 -101 -73
-21 0 -38 3 -37 8 3 32 21 47 75 63 77 22 79 22 63 2z m-169 -42 c0 -28 -44
-95 -72 -110 -24 -14 -28 -14 -48 4 -24 22 -55 70 -64 101 -6 21 -4 21 89 21
79 -1 95 -3 95 -16z"/>
<path d="M1180 801 c-94 -29 -182 -112 -215 -202 -45 -124 -10 -267 87 -354
182 -163 462 -81 532 155 21 71 20 104 -5 185 -27 89 -105 172 -192 204 -59
21 -157 27 -207 12z m170 -190 c70 -50 90 -138 47 -201 -81 -121 -258 -81
-274 62 -14 122 129 209 227 139z"/>
<path d="M2506 786 c-209 -88 -266 -353 -113 -523 85 -93 231 -128 351 -83
221 83 285 368 119 533 -62 63 -125 90 -218 94 -68 3 -89 0 -139 -21z m204
-175 c42 -30 70 -80 70 -125 0 -94 -96 -169 -184 -145 -111 31 -150 158 -74
244 49 56 130 67 188 26z"/>
</g>
</svg>
