<?xml version="1.0" standalone="no"?>
<!DOCTYPE svg PUBLIC "-//W3C//DTD SVG 20010904//EN"
 "http://www.w3.org/TR/2001/REC-SVG-20010904/DTD/svg10.dtd">
<svg version="1.0" xmlns="http://www.w3.org/2000/svg"
 width="338.000000pt" height="338.000000pt" viewBox="0 0 338.000000 338.000000"
 preserveAspectRatio="xMidYMid meet">
<metadata>
Created by potrace 1.16, written by Peter Selinger 2001-2019
</metadata>
<g transform="translate(0.000000,338.000000) scale(0.100000,-0.100000)"
fill="#000000" stroke="none">
<path d="M236 3327 c-32 -112 -37 -140 -29 -147 4 -4 100 -31 213 -60 113 -28
208 -55 213 -59 10 -9 -120 -510 -139 -536 -8 -11 -39 -51 -69 -90 -100 -129
-180 -316 -211 -498 -20 -113 -14 -337 11 -442 55 -232 159 -418 327 -581 103
-101 177 -154 294 -212 126 -63 216 -91 387 -117 l37 -6 0 -149 0 -150 -155 0
-155 0 0 -55 0 -55 -105 0 -105 0 0 -85 0 -85 615 0 615 0 0 85 0 85 -100 0
-100 0 0 55 0 55 -140 0 -140 0 2 277 3 278 60 7 c296 37 565 230 702 503 68
134 111 346 97 471 -8 64 -1 74 56 74 l36 0 21 83 c78 309 145 563 151 568 4
4 53 -5 110 -19 109 -29 111 -31 93 -88 -5 -16 -31 -112 -56 -214 -26 -102
-50 -188 -54 -192 -3 -4 -28 -1 -55 7 -27 8 -50 14 -51 13 -5 -7 -95 -368 -95
-381 0 -10 48 -26 161 -56 89 -23 163 -40 165 -39 8 8 101 388 96 392 -3 3
-12 6 -21 6 -46 1 -46 9 14 241 32 123 61 228 65 232 4 5 34 1 66 -7 32 -8 62
-12 65 -8 5 6 49 172 49 186 0 7 -39 18 -540 147 -261 67 -558 143 -660 169
-102 27 -275 71 -385 100 -110 28 -258 66 -330 85 -71 18 -202 52 -290 75
-259 67 -461 119 -597 155 l-127 33 -15 -51z m370 -1008 c29 -16 56 -34 59
-39 3 -5 -10 -37 -29 -72 -175 -317 -152 -711 56 -993 147 -198 346 -323 583
-365 39 -6 80 -14 93 -16 21 -4 23 -9 20 -57 l-3 -52 -44 -3 c-25 -2 -87 4
-138 13 -418 71 -742 380 -839 800 -13 58 -18 118 -18 220 0 157 21 262 77
390 31 72 111 205 123 205 4 0 31 -14 60 -31z m328 -220 c0 -13 -8 -72 -17
-130 -10 -59 -17 -130 -17 -158 l0 -51 -155 0 -155 0 0 40 c0 103 53 278 115
380 l36 59 97 -58 c81 -49 97 -62 96 -82z m278 -141 l188 -113 0 -42 0 -43
-210 0 c-186 0 -211 2 -217 16 -7 18 21 266 32 284 3 5 9 10 13 10 3 0 91 -51
194 -112z m1076 -140 l3 -58 -150 0 -150 0 -6 34 c-13 69 -12 70 110 77 61 3
128 5 150 5 l40 -1 3 -57z m-378 -8 l0 -50 -215 0 -215 0 0 40 0 40 53 1 c28
1 104 5 167 9 63 3 136 7 163 8 l47 2 0 -50z m-1005 -187 c7 -68 30 -201 40
-234 5 -14 -13 -27 -97 -68 l-103 -51 -18 23 c-50 64 -114 234 -132 355 l-7
42 155 0 155 0 7 -67z m495 -51 l0 -118 -107 -12 c-60 -7 -139 -19 -178 -28
-38 -9 -77 -16 -85 -17 -9 -1 -18 16 -27 53 -15 67 -33 222 -27 232 3 5 99 8
215 8 l209 0 0 -118z m506 36 c-4 -46 -14 -114 -23 -151 -12 -57 -18 -67 -32
-62 -47 14 -166 36 -263 47 l-108 12 0 118 0 118 216 0 217 0 -7 -82z m384 59
c0 -79 -101 -351 -144 -386 -9 -7 -37 2 -100 34 -49 24 -93 46 -98 47 -6 2 -3
35 7 83 9 44 19 112 22 150 2 39 6 76 9 83 2 9 42 12 154 12 l150 0 0 -23z
m-890 -522 c0 -181 -3 -235 -12 -235 -52 1 -166 82 -221 157 -64 88 -135 239
-119 255 15 15 223 51 330 57 l22 1 0 -235z m300 208 c114 -18 140 -27 140
-49 0 -9 -21 -59 -46 -110 -55 -113 -149 -220 -226 -258 -93 -47 -88 -59 -88
209 l0 236 63 -6 c34 -4 105 -13 157 -22z m-705 -117 c25 -67 77 -160 131
-229 51 -67 46 -68 -61 -15 -79 40 -169 105 -228 166 l-49 49 35 22 c52 32
141 70 148 63 3 -4 14 -29 24 -56z m1015 19 c37 -19 71 -39 74 -43 7 -11 -103
-117 -164 -159 -46 -31 -131 -76 -176 -93 -22 -9 -23 -8 -15 8 6 10 17 24 26
32 26 21 102 151 130 223 16 39 33 67 41 67 8 0 46 -16 84 -35z"/>
</g>
</svg>
