<?xml version="1.0" standalone="no"?>
<!DOCTYPE svg PUBLIC "-//W3C//DTD SVG 20010904//EN"
 "http://www.w3.org/TR/2001/REC-SVG-20010904/DTD/svg10.dtd">
<svg version="1.0" xmlns="http://www.w3.org/2000/svg"
 width="338.000000pt" height="338.000000pt" viewBox="0 0 338.000000 338.000000"
 preserveAspectRatio="xMidYMid meet">
<metadata>
Created by potrace 1.16, written by Peter Selinger 2001-2019
</metadata>
<g transform="translate(0.000000,338.000000) scale(0.100000,-0.100000)"
fill="#000000" stroke="none">
<path d="M1274 3266 c-69 -30 -86 -111 -35 -168 25 -28 36 -33 76 -33 40 0 51
5 76 33 52 58 34 138 -37 168 -40 17 -41 17 -80 0z m81 -66 c23 -25 14 -63
-19 -78 -20 -9 -29 -7 -50 9 -30 24 -33 45 -9 71 21 24 55 23 78 -2z"/>
<path d="M2492 3247 c-50 -16 -118 -81 -138 -132 -37 -99 0 -214 88 -272 37
-25 51 -28 122 -28 73 0 85 3 126 30 31 21 54 47 73 84 48 95 33 189 -42 261
-66 65 -145 84 -229 57z m68 -60 c0 -30 -2 -56 -5 -59 -3 -3 -22 -2 -42 1 -49
8 -53 29 -13 75 46 52 60 48 60 -17z m48 37 c27 -19 57 -73 45 -84 -4 -5 -24
-10 -43 -12 l-35 -3 -3 58 c-3 61 1 66 36 41z m-139 -38 c-21 -37 -54 -46 -54
-16 0 14 64 64 72 56 2 -2 -6 -20 -18 -40z m241 -1 c12 -14 12 -18 -1 -26 -24
-15 -34 -10 -49 24 -7 17 -15 36 -18 40 -7 14 53 -20 68 -38z m-287 -47 c14
-11 16 -22 11 -60 -6 -46 -8 -48 -40 -48 -18 0 -36 5 -39 10 -12 19 25 110 44
110 4 0 15 -6 24 -12z m331 -16 c8 -16 16 -42 18 -58 3 -27 0 -29 -34 -32 -37
-3 -37 -3 -44 44 -6 39 -4 49 12 61 25 19 32 17 48 -15z m-212 -12 c16 0 19
-6 16 -37 l-3 -38 -52 -3 -53 -3 0 39 c0 48 7 55 44 48 16 -3 37 -6 48 -6z
m132 -6 c3 -9 6 -29 6 -45 0 -29 -1 -29 -55 -29 l-55 0 0 39 c0 42 -2 41 81
49 9 1 20 -5 23 -14z m-240 -115 c9 -49 8 -55 -19 -67 -21 -10 -26 -9 -36 10
-16 30 -28 76 -21 82 3 3 20 6 37 6 28 0 33 -4 39 -31z m121 -4 c0 -28 -3 -30
-45 -36 -25 -4 -48 -5 -52 -2 -5 2 -8 20 -8 39 l0 35 53 -3 c50 -3 52 -4 52
-33z m122 -1 c-3 -20 -7 -38 -9 -39 -2 -1 -23 0 -48 4 -32 4 -46 11 -48 24 -7
37 5 47 59 47 l52 0 -6 -36z m93 16 c0 -11 -7 -36 -14 -55 -14 -33 -17 -34
-40 -23 -19 8 -26 19 -26 39 0 47 10 59 46 59 28 0 34 -4 34 -20z m-210 -120
c0 -71 -9 -74 -56 -24 -53 55 -44 80 29 83 27 1 27 0 27 -59z m98 45 c14 -14
-53 -105 -77 -105 -7 0 -11 23 -11 61 l0 62 42 -7 c23 -4 44 -9 46 -11z m-190
-45 c22 -45 15 -50 -28 -18 -34 25 -38 44 -12 51 9 3 18 5 18 6 1 0 11 -17 22
-39z m252 10 c0 -8 -61 -50 -74 -50 -3 0 3 18 14 40 18 35 23 39 40 30 11 -6
20 -15 20 -20z"/>
<path d="M963 3191 l-42 -6 82 -62 c45 -35 95 -73 111 -86 l29 -24 -78 -112
-78 -113 44 7 c24 3 52 9 62 11 17 5 167 207 167 225 0 16 -214 168 -235 167
-11 0 -39 -4 -62 -7z m255 -165 c-2 -13 -10 -21 -23 -21 -23 0 -33 34 -14 45
20 13 40 -1 37 -24z"/>
<path d="M1314 3020 c-32 -13 -64 -59 -64 -92 0 -64 44 -107 108 -108 81 0
126 77 90 155 -21 45 -82 66 -134 45z m76 -60 c11 -11 20 -28 20 -37 0 -25
-30 -53 -56 -53 -23 0 -54 33 -54 57 0 18 37 53 55 53 8 0 24 -9 35 -20z"/>
<path d="M1356 2414 l-626 -505 32 -40 c17 -21 35 -39 39 -39 4 0 46 32 93 70
46 39 89 70 94 70 5 0 60 -63 122 -140 98 -122 114 -138 131 -129 25 13 26 18
-20 -227 -70 -369 -92 -479 -99 -486 -4 -4 -133 -25 -287 -48 -154 -23 -370
-55 -480 -71 -110 -16 -224 -33 -252 -36 -29 -3 -53 -9 -53 -12 0 -3 325 -123
722 -265 l722 -259 351 47 c192 26 485 66 650 88 165 22 302 42 304 44 2 2 16
56 31 121 15 65 62 262 103 438 223 941 267 1128 263 1133 -6 5 -89 14 -481
52 -572 56 -686 68 -692 74 -3 3 6 24 21 46 l27 41 -115 142 -115 142 32 28
c63 55 58 57 148 -54 80 -99 81 -101 60 -115 -11 -8 -21 -18 -21 -22 0 -10
119 -156 131 -160 8 -3 43 23 132 99 5 4 -19 42 -54 85 -49 62 -68 79 -86 77
-18 -1 -38 15 -86 74 -95 115 -96 118 -64 143 l27 21 -32 40 c-17 21 -35 39
-39 39 -4 0 -289 -227 -633 -506z m774 -259 c174 -21 541 -63 690 -80 167 -20
200 -25 200 -35 0 -5 -65 -284 -145 -622 -80 -337 -155 -653 -167 -703 -11
-49 -23 -93 -27 -97 -3 -3 -33 2 -66 12 -33 10 -269 77 -525 150 -256 72 -554
156 -662 187 -122 35 -198 61 -198 69 0 6 27 153 61 326 33 172 64 331 67 352
l7 39 200 84 200 84 60 91 c109 167 111 169 148 163 18 -2 88 -12 157 -20z
m-988 -1557 c103 -35 188 -66 188 -69 0 -3 -45 -11 -99 -18 l-99 -13 -134 50
c-73 28 -153 59 -178 70 -42 18 -43 20 -20 26 32 7 76 13 119 15 19 0 118 -27
223 -61z"/>
<path d="M2203 1877 c2 -7 10 -38 17 -70 11 -56 12 -57 46 -57 27 0 35 -5 39
-22 31 -139 31 -133 -5 -148 -21 -9 -29 -18 -26 -29 3 -9 10 -42 16 -74 8 -39
15 -55 23 -50 51 30 340 212 373 234 l42 28 -14 68 c-8 37 -16 67 -17 68 -4 3
-472 66 -486 65 -7 0 -11 -6 -8 -13z m300 -147 c26 0 47 -3 47 -7 0 -9 -120
-77 -125 -71 -2 2 -7 23 -11 47 -7 43 -6 44 17 38 13 -4 45 -7 72 -7z"/>
<path d="M1640 1200 l0 -190 129 0 c117 0 131 2 162 23 19 12 40 35 47 50 18
37 6 93 -25 117 l-24 19 22 30 c19 26 21 36 13 68 -14 59 -52 73 -201 73
l-123 0 0 -190z m218 76 c5 -24 -14 -36 -60 -36 -36 0 -38 2 -38 31 0 30 1 30
47 27 37 -2 49 -7 51 -22z m7 -141 c0 -29 -2 -30 -52 -33 l-53 -3 0 36 0 36
53 -3 c50 -3 52 -4 52 -33z"/>
<path d="M3081 2764 c-26 -12 -32 -19 -27 -34 3 -11 9 -28 12 -38 4 -15 -11
-24 -93 -56 -168 -66 -202 -83 -214 -109 -6 -14 -30 -33 -53 -43 -22 -10 -43
-19 -45 -20 -6 -5 33 -104 41 -104 5 0 25 7 45 15 28 12 44 13 69 5 29 -10 47
-5 170 45 77 31 144 59 150 61 6 3 17 -9 24 -25 14 -35 18 -36 65 -17 33 14
34 16 24 46 -6 17 -10 33 -7 35 2 2 33 17 70 32 l66 28 -36 89 c-39 99 -34 96
-130 57 l-53 -21 -15 35 c-16 39 -16 39 -63 19z m27 -174 c13 -34 22 -66 19
-73 -3 -7 -65 -37 -138 -66 -112 -44 -140 -51 -174 -46 -22 4 -53 2 -69 -5
-32 -12 -40 -7 -50 27 -6 19 -1 25 27 37 19 8 43 27 52 43 14 24 43 41 154 86
75 31 141 56 146 56 6 1 21 -26 33 -59z"/>
<path d="M469 2736 c-87 -23 -157 -95 -179 -186 -34 -140 98 -300 246 -300 74
0 131 27 183 87 60 67 71 170 27 238 l-17 26 -48 -43 c-46 -42 -48 -45 -47
-97 1 -51 -1 -55 -32 -74 -40 -24 -69 -18 -118 26 -34 29 -73 95 -74 124 0 6
12 25 26 42 19 23 34 31 58 31 18 0 36 -4 42 -10 12 -12 117 77 108 91 -8 13
-64 41 -99 49 -17 4 -51 2 -76 -4z"/>
<path d="M3287 2103 c-13 -49 -36 -147 -142 -603 -63 -272 -129 -551 -145
-620 -17 -69 -48 -201 -70 -294 -21 -92 -41 -170 -44 -173 -5 -6 -1350 -203
-1384 -203 -14 0 -206 66 -426 147 -221 80 -552 201 -736 269 l-335 122 -3
-35 c-2 -20 0 -39 5 -43 12 -12 1456 -563 1473 -563 16 0 98 12 285 42 66 11
352 56 635 100 283 45 526 84 539 88 22 7 28 25 66 183 139 574 202 832 255
1055 33 138 74 304 90 369 33 132 35 121 -32 160 -25 15 -27 15 -31 -1z"/>
<path d="M453 1719 c-123 -23 -213 -136 -213 -269 0 -103 56 -197 144 -242 62
-32 169 -36 230 -9 43 19 50 19 69 6 18 -13 23 -13 38 1 16 15 26 10 127 -65
60 -45 114 -81 118 -81 5 0 22 19 38 41 25 36 26 41 12 52 -8 7 -58 44 -111
82 -79 59 -94 74 -90 92 3 14 -1 25 -12 32 -15 8 -18 24 -19 84 0 59 -5 84
-28 130 -54 111 -177 170 -303 146z m148 -133 c69 -47 91 -151 47 -216 -39
-57 -72 -75 -138 -75 -66 0 -99 18 -137 75 -52 75 -13 192 77 232 8 4 38 7 65
7 38 1 59 -5 86 -23z"/>
</g>
</svg>
