<?xml version="1.0" standalone="no"?>
<!DOCTYPE svg PUBLIC "-//W3C//DTD SVG 20010904//EN"
 "http://www.w3.org/TR/2001/REC-SVG-20010904/DTD/svg10.dtd">
<svg version="1.0" xmlns="http://www.w3.org/2000/svg"
 width="338.000000pt" height="338.000000pt" viewBox="0 0 338.000000 338.000000"
 preserveAspectRatio="xMidYMid meet">

<g transform="translate(0.000000,338.000000) scale(0.100000,-0.100000)"
fill="#000000" stroke="none">
<path d="M1636 3354 c-18 -18 -26 -37 -26 -60 0 -32 -13 -45 -197 -202 -108
-92 -269 -229 -357 -304 l-161 -138 -165 0 c-91 0 -182 -5 -203 -11 -49 -13
-115 -73 -138 -124 -18 -38 -19 -99 -19 -1188 0 -1257 -3 -1185 58 -1251 15
-16 50 -39 77 -52 l50 -24 985 0 985 0 243 243 242 242 0 995 c0 941 -1 997
-19 1035 -23 51 -89 111 -138 124 -21 6 -112 11 -203 11 l-165 1 -219 187
c-121 103 -281 239 -355 302 -129 110 -136 118 -142 159 -10 77 -81 106 -133
55z m249 -259 c78 -66 227 -192 330 -280 l189 -160 -357 -3 c-196 -1 -517 -1
-713 0 l-356 3 194 165 c106 91 254 217 329 280 l135 115 53 0 53 0 143 -120z
m-848 -659 c58 -63 40 -151 -37 -191 -58 -30 -125 -10 -160 48 -77 126 97 253
197 143z m343 29 c37 -19 60 -63 60 -115 0 -32 -7 -48 -33 -76 -65 -71 -172
-50 -206 40 -40 104 78 203 179 151z m369 1 c60 -32 84 -121 47 -178 -19 -29
-72 -58 -106 -58 -32 0 -82 27 -103 56 -24 32 -24 103 -1 139 34 52 106 70
163 41z m382 -9 c19 -13 40 -39 48 -61 32 -84 -38 -173 -129 -163 -116 13
-152 163 -54 228 39 26 93 24 135 -4z m359 10 c34 -17 70 -74 70 -111 0 -63
-63 -126 -125 -126 -66 0 -125 59 -125 126 0 90 99 152 180 111z m398 -1151
c1 -524 -1 -773 -8 -781 -7 -9 -52 -14 -138 -17 -111 -3 -132 -6 -164 -26 -60
-37 -78 -88 -78 -222 0 -92 -3 -117 -17 -132 -15 -17 -58 -18 -947 -18 -623 0
-944 4 -969 11 -26 7 -44 21 -57 42 -19 31 -20 59 -20 968 0 515 3 939 7 942
3 4 542 6 1197 5 l1191 -3 3 -769z"/>
<path d="M1503 1850 c-89 -29 -113 -61 -113 -152 0 -63 3 -72 29 -98 44 -44
126 -64 261 -64 129 0 211 18 257 58 25 21 28 32 31 99 4 71 3 76 -24 105 -48
50 -103 65 -249 69 -109 2 -140 0 -192 -17z m342 -25 c49 -14 95 -46 95 -65 0
-21 -41 -50 -92 -65 -164 -49 -423 -9 -423 65 0 30 65 65 145 79 71 13 211 6
275 -14z"/>
<path d="M1660 1821 c0 -5 -13 -11 -30 -14 -46 -10 -34 -47 15 -47 8 0 26 -5
42 -12 27 -12 26 -12 -32 -18 -54 -5 -57 -7 -30 -14 17 -5 33 -14 37 -20 5 -8
13 -7 25 2 10 6 25 15 33 18 64 24 56 39 -32 58 -43 10 -34 28 12 25 21 -2 42
0 46 4 4 4 -5 7 -19 7 -15 0 -27 5 -27 10 0 6 -9 10 -20 10 -11 0 -20 -4 -20
-9z"/>
<path d="M2226 1587 c-39 -67 -80 -138 -93 -157 -13 -19 -23 -38 -23 -42 0 -5
25 -8 55 -8 l55 0 0 -455 0 -455 80 0 80 0 0 455 0 455 55 0 c30 0 55 2 55 4
0 2 -26 49 -58 103 -32 54 -73 126 -92 161 -19 34 -37 62 -40 62 -3 0 -36 -55
-74 -123z"/>
<path d="M1390 1539 c0 -69 21 -99 82 -122 109 -39 220 -47 339 -22 124 26
159 58 159 148 l0 47 -21 -21 c-58 -58 -209 -89 -344 -71 -94 12 -178 44 -200
76 -14 19 -15 16 -15 -35z"/>
<path d="M1958 1427 c-11 -25 -100 -64 -182 -78 -63 -11 -149 -8 -226 7 l-29
6 10 -36 c6 -20 9 -47 7 -59 -3 -18 3 -23 37 -29 65 -11 165 -9 239 7 122 26
160 63 154 153 -2 32 -5 41 -10 29z"/>
<path d="M1038 1405 c-81 -20 -137 -51 -148 -81 -14 -35 -12 -124 3 -154 7
-15 37 -38 72 -55 58 -29 64 -30 200 -30 154 0 220 15 269 60 24 22 26 31 26
100 0 71 -2 79 -28 105 -16 15 -53 36 -83 45 -76 23 -239 28 -311 10z m327
-45 c68 -34 78 -54 42 -85 -40 -35 -88 -47 -213 -52 -121 -5 -202 10 -256 49
-33 23 -35 39 -9 62 43 39 128 56 261 53 110 -2 131 -6 175 -27z"/>
<path d="M1122 1354 c-42 -19 -37 -36 14 -47 67 -15 71 -17 51 -28 -10 -6 -36
-8 -58 -4 -25 4 -39 3 -39 -4 0 -6 14 -11 30 -11 17 0 30 -4 30 -10 0 -5 9
-10 20 -10 11 0 20 5 20 10 0 6 7 10 16 10 8 0 24 5 35 11 30 15 8 36 -47 45
-57 8 -57 24 1 24 25 0 45 5 45 10 0 6 -6 10 -14 10 -7 0 -26 2 -42 5 -16 2
-44 -3 -62 -11z"/>
<path d="M1931 1253 c-36 -24 -117 -52 -160 -55 -14 0 24 -4 84 -8 61 -4 111
-6 113 -5 2 2 2 23 0 47 l-3 44 -34 -23z"/>
<path d="M1540 1174 c0 -32 20 -48 34 -26 3 5 31 14 63 21 82 19 83 19 33 21
-25 0 -64 5 -87 9 l-43 8 0 -33z"/>
<path d="M880 1088 c0 -79 37 -116 142 -144 70 -18 229 -18 302 1 108 28 136
57 136 141 l0 46 -30 -25 c-54 -46 -122 -62 -260 -62 -138 0 -206 16 -260 62
l-30 25 0 -44z"/>
<path d="M1684 1106 c-86 -20 -139 -49 -154 -85 -20 -49 -9 -145 20 -176 89
-94 487 -84 540 14 5 11 10 52 10 91 0 67 -2 74 -29 100 -60 55 -261 85 -387
56z m276 -31 c64 -17 104 -44 108 -72 2 -17 -9 -27 -55 -49 -51 -25 -72 -29
-167 -33 -64 -2 -132 2 -168 9 -65 14 -121 46 -126 72 -4 22 46 55 109 72 71
19 229 20 299 1z"/>
<path d="M1780 1060 c-8 -5 -23 -11 -32 -14 -10 -3 -18 -10 -18 -16 0 -12 5
-14 68 -30 57 -15 44 -34 -19 -28 -27 3 -49 1 -49 -3 0 -5 11 -9 24 -9 14 0
28 -4 31 -10 3 -5 15 -10 26 -10 10 0 19 5 19 10 0 6 7 10 16 10 8 0 24 5 35
11 30 15 8 36 -47 45 -58 8 -56 24 4 25 l47 1 -30 13 c-35 16 -54 17 -75 5z"/>
<path d="M882 926 c4 -52 9 -63 37 -87 99 -83 423 -79 514 5 23 22 27 33 27
82 l0 57 -22 -20 c-55 -50 -140 -73 -268 -73 -129 0 -212 23 -269 74 l-23 21
4 -59z"/>
<path d="M882 777 c3 -42 11 -64 28 -82 83 -89 428 -89 523 -1 23 22 27 33 27
82 0 48 -2 55 -12 43 -41 -50 -145 -79 -278 -79 -129 0 -212 23 -269 74 l-23
21 4 -58z"/>
<path d="M1520 783 c0 -72 30 -106 118 -134 138 -43 374 -18 438 46 20 20 24
34 24 81 l0 57 -26 -26 c-39 -39 -107 -59 -228 -64 -148 -8 -243 14 -303 70
l-23 20 0 -50z"/>
<path d="M880 643 c0 -106 49 -142 220 -163 139 -16 308 20 345 74 9 11 15 43
15 73 l0 52 -26 -24 c-49 -45 -115 -60 -269 -60 -125 0 -145 2 -190 23 -27 13
-60 33 -72 44 l-23 21 0 -40z"/>
<path d="M1520 637 c0 -101 49 -136 220 -157 137 -16 308 21 345 74 9 12 15
43 15 75 l0 54 -26 -26 c-46 -47 -113 -62 -269 -62 -125 0 -145 2 -190 23 -27
13 -60 33 -72 44 l-23 21 0 -46z"/>
<path d="M880 493 c0 -71 16 -100 74 -128 103 -50 314 -52 426 -4 64 28 80 50
80 116 l0 52 -27 -25 c-14 -13 -57 -34 -95 -45 -59 -18 -87 -21 -191 -17 -134
6 -194 22 -239 65 l-28 27 0 -41z"/>
<path d="M1520 487 c0 -59 14 -89 51 -111 101 -60 328 -67 449 -15 65 28 80
50 80 118 l0 54 -27 -27 c-15 -15 -55 -35 -95 -47 -59 -18 -87 -21 -191 -17
-134 6 -194 22 -239 65 l-28 27 0 -47z"/>
</g>
</svg>
