<?xml version="1.0" standalone="no"?>
<!DOCTYPE svg PUBLIC "-//W3C//DTD SVG 20010904//EN"
 "http://www.w3.org/TR/2001/REC-SVG-20010904/DTD/svg10.dtd">
<svg version="1.0" xmlns="http://www.w3.org/2000/svg"
 width="338.000000pt" height="338.000000pt" viewBox="0 0 338.000000 338.000000"
 preserveAspectRatio="xMidYMid meet">
<metadata>
Created by potrace 1.16, written by Peter Selinger 2001-2019
</metadata>
<g transform="translate(0.000000,338.000000) scale(0.100000,-0.100000)"
fill="#000000" stroke="none">
<path d="M2329 3365 c-105 -34 -201 -127 -233 -227 -43 -133 1 -286 106 -371
58 -47 92 -63 164 -77 147 -29 302 50 375 192 34 66 38 194 8 273 -61 162
-260 261 -420 210z"/>
<path d="M2297 2646 c-103 -37 -190 -110 -387 -325 -154 -168 -199 -191 -311
-157 -96 29 -178 -20 -186 -111 -7 -83 37 -129 152 -159 147 -40 299 7 434
132 32 30 61 54 64 54 3 0 7 -129 9 -287 2 -207 7 -294 16 -310 9 -17 12 -173
12 -688 0 -728 -2 -707 59 -758 89 -75 225 -24 250 95 7 31 11 251 11 598 0
360 3 550 10 550 7 0 10 -198 10 -573 l0 -573 23 -44 c26 -52 83 -90 137 -90
47 0 109 37 134 80 20 34 21 54 28 725 4 380 11 794 15 920 7 208 9 227 22
200 10 -21 15 -90 19 -235 5 -224 10 -248 62 -275 43 -22 112 -19 144 6 56 44
60 66 60 284 -1 277 -33 428 -128 600 -70 125 -240 272 -383 331 l-58 23 -46
-45 -47 -46 -38 46 c-21 25 -41 46 -44 46 -3 -1 -22 -7 -43 -14z m179 -394
l37 -253 -38 -55 c-21 -30 -41 -57 -45 -59 -4 -3 -26 22 -49 54 l-41 59 35
239 c52 348 47 322 56 293 4 -14 25 -139 45 -278z"/>
<path d="M1195 1908 c-133 -47 -179 -212 -88 -318 46 -54 86 -73 153 -74 109
0 189 72 198 178 2 30 -1 70 -8 90 -34 104 -151 160 -255 124z"/>
<path d="M1560 1176 c-122 -31 -126 -32 -195 -18 -38 8 -119 15 -180 16 -121
1 -197 -17 -318 -75 -126 -60 -232 -173 -281 -299 -16 -41 -31 -59 -47 -60 -4
0 -9 18 -12 40 -6 49 -22 70 -51 70 -59 0 -87 -81 -43 -128 l22 -25 -34 7
c-19 3 -42 13 -52 22 -22 20 -43 95 -37 134 5 36 -6 47 -29 29 -12 -11 -14
-26 -10 -71 7 -75 34 -128 78 -151 39 -21 100 -18 127 6 9 8 26 17 38 21 20 6
21 4 16 -71 -11 -195 46 -341 167 -425 17 -12 25 -33 33 -84 6 -38 16 -75 22
-82 17 -18 201 -29 211 -13 4 7 7 28 7 48 l0 35 45 -6 c25 -3 74 -6 109 -6 62
0 62 0 69 -33 4 -17 12 -38 17 -45 14 -16 150 -16 166 0 7 7 12 36 12 65 0 49
2 53 24 53 19 0 27 -8 36 -34 6 -19 17 -36 23 -39 22 -8 199 12 214 25 11 9
13 24 8 64 -6 48 -3 56 29 107 45 70 80 95 158 111 l63 13 0 134 0 134 -37 9
c-35 9 -37 11 -47 68 -13 75 -50 157 -102 226 -40 53 -40 54 -30 103 14 66 14
132 -1 147 -17 17 -49 14 -188 -22z m-331 -191 c75 -18 91 -29 91 -60 0 -43
-23 -50 -106 -31 -41 9 -85 16 -99 16 -56 0 -129 -24 -185 -61 -50 -34 -63
-38 -80 -29 -30 16 -25 52 13 87 87 83 223 111 366 78z m451 -144 c24 -45 3
-111 -35 -111 -18 0 -45 39 -45 65 0 52 58 86 80 46z m-1190 -78 c0 -7 -4 -13
-9 -13 -16 0 -33 30 -26 47 6 17 7 17 21 -1 8 -11 14 -26 14 -33z"/>
</g>
</svg>
