<svg xmlns="http://www.w3.org/2000/svg" xmlns:xlink="http://www.w3.org/1999/xlink" width="661" height="495" viewBox="0 0 561 395">
    <defs>
        <linearGradient id="a" x1="50%" x2="50%" y1="7.091%" y2="54.182%">
            <stop offset="0%" stop-opacity=".5"/>
            <stop offset="98.133%" stop-opacity=".05"/>
            <stop offset="100%" stop-color="#FFF" stop-opacity="0"/>
        </linearGradient>
        <filter id="b" width="134.9%" height="232%" x="-17.4%" y="-66%" filterUnits="objectBoundingBox">
            <feGaussianBlur in="SourceGraphic" stdDeviation="25.245"/>
        </filter>
        <filter id="c" width="107.2%" height="201.8%" x="-3.6%" y="-50.9%" filterUnits="objectBoundingBox">
            <feGaussianBlur in="SourceGraphic" stdDeviation="5.61"/>
        </filter>
        <filter id="d" width="112.6%" height="340.2%" x="-6.3%" y="-120.1%" filterUnits="objectBoundingBox">
            <feGaussianBlur in="SourceGraphic" stdDeviation="9.35"/>
        </filter>
        <rect id="f" width="472.175" height="308.259" x="44.88" rx="14.586"/>
        <filter id="e" width="100.2%" height="100.6%" x="-.1%" y="-.2%" filterUnits="objectBoundingBox">
            <feOffset dy="1" in="SourceAlpha" result="shadowOffsetOuter1"/>
            <feColorMatrix in="shadowOffsetOuter1" values="0 0 0 0 0 0 0 0 0 0 0 0 0 0 0 0 0 0 0.2 0"/>
        </filter>
        <filter id="g" width="100.4%" height="101%" x="-.2%" y="-.3%" filterUnits="objectBoundingBox">
            <feGaussianBlur in="SourceAlpha" result="shadowBlurInner1" stdDeviation=".5"/>
            <feOffset dy="1" in="shadowBlurInner1" result="shadowOffsetInner1"/>
            <feComposite in="shadowOffsetInner1" in2="SourceAlpha" k2="-1" k3="1" operator="arithmetic" result="shadowInnerInner1"/>
            <feColorMatrix in="shadowInnerInner1" values="0 0 0 0 1 0 0 0 0 1 0 0 0 0 1 0 0 0 1 0"/>
        </filter>
        <linearGradient id="h" x1="0%" y1="50%" y2="50%">
            <stop offset="0%" stop-color="#BCBDBF"/>
            <stop offset="9.76%" stop-color="#D8D8DF"/>
            <stop offset="88.821%" stop-color="#D8D8DF"/>
            <stop offset="100%" stop-color="#ADAABD"/>
        </linearGradient>
        <linearGradient id="i" x1="50%" x2="50%" y1="0%" y2="100%">
            <stop offset="0%" stop-color="#FFF"/>
            <stop offset="100%" stop-color="#CDCBD5"/>
        </linearGradient>
        <path id="j" d="M0 .18h426.36v266.224H0z"/>
    </defs>
    <g fill="none" fill-rule="evenodd">
        <g transform="translate(47.685 282.007)">
            <path fill="url(#a)" d="M452.256 2.377l-43.979 109.974c-1.807 3.171-344.722 3.17-346.528 0L17.771 2.377c-1.807-3.17 436.29-3.169 434.485 0z" filter="url(#b)" opacity=".5"/>
            <rect width="467.874" height="33.078" x=".748" y="9.158" fill="#000" filter="url(#c)" opacity=".05" rx="16.539"/>
            <rect width="446.93" height="23.353" x="13.09" y="9.341" fill="#000" filter="url(#d)" opacity=".5" rx="11.676"/>
        </g>
        <g>
            <use fill="#000" filter="url(#e)" xlink:href="#f"/>
            <use fill="#F8F8F8" xlink:href="#f"/>
            <use fill="#000" filter="url(#g)" xlink:href="#f"/>
        </g>
        <path fill="#FFF" d="M0 305.456h561v3.736H0z"/>
        <path fill="url(#h)" fill-opacity=".5" d="M230.945 305.456H330.99v1.402c0 .773-.626 1.4-1.395 1.4H232.34c-.77 0-1.395-.621-1.395-1.4v-1.402z"/>
        <path fill="url(#i)" d="M281.435 308.259l279.565.934s-13.45 6.539-89.76 6.539H281.435 89.76c-76.273 0-89.76-6.54-89.76-6.54l281.435-.933z"/>
        <g transform="translate(68.255 21.305)">
            <mask id="k" fill="#fff">
                <use xlink:href="#j"/>
            </mask>
            <use fill="#FFF" xlink:href="#j"/>
            <g mask="url(#k)">
                <g transform="translate(28 15)">
                    <circle cx="219" cy="108" r="90" fill="#E9F0FA"/>
                    <path stroke="#C9DCF2" stroke-dasharray="2" d="M199 208c49.706 0 90-40.294 90-90s-40.294-90-90-90-90 40.294-90 90 40.294 90 90 90z"/>
                    <path fill="#C9DCF2" d="M189 109h2v19h-2zM200 88h2v19h-2zM227 88h2v19h-2zM211 109h2v19h-2zM230 85h19v2h-19zM173 107h75v2h-75z"/>
                    <circle cx="190" cy="130" r="3" fill="#4A90E2"/>
                    <circle cx="201" cy="86" r="3" fill="#4A90E2"/>
                    <circle cx="212" cy="130" r="3" fill="#4A90E2"/>
                    <circle cx="251" cy="86" r="3" fill="#4A90E2"/>
                    <circle cx="228" cy="86" r="3" fill="#4A90E2"/>
                    <rect width="57" height="5" x="300" y="28" fill="#E9F0FA" rx=".5"/>
                    <rect width="25" height="5" x="344" y="18" fill="#E9F0FA" rx=".5"/>
                    <rect width="57" height="5" x="50" y="198" fill="#E9F0FA" rx=".5"/>
                    <rect width="25" height="5" x="94" y="188" fill="#E9F0FA" rx=".5"/>
                    <circle cx="164.5" cy="19.5" r="4.5" fill="#E9F0FA"/>
                    <circle cx="178.5" cy="5.5" r="5.5" fill="#E9F0FA"/>
                    <g transform="translate(0 37)">
                        <rect width="172" height="97" x=".5" y=".5" fill="#FFF" stroke="#CFE2F7" rx="2"/>
                        <path fill="#4A90E2" d="M33.5 38h2a.5.5 0 0 1 .5.5v21a.5.5 0 0 1-.5.5h-2a.5.5 0 0 1-.5-.5v-21a.5.5 0 0 1 .5-.5zm8-7h2a.5.5 0 0 1 .5.5v35a.5.5 0 0 1-.5.5h-2a.5.5 0 0 1-.5-.5v-35a.5.5 0 0 1 .5-.5zm8 7h2a.5.5 0 0 1 .5.5v21a.5.5 0 0 1-.5.5h-2a.5.5 0 0 1-.5-.5v-21a.5.5 0 0 1 .5-.5zm8 3h2a.5.5 0 0 1 .5.5v15a.5.5 0 0 1-.5.5h-2a.5.5 0 0 1-.5-.5v-15a.5.5 0 0 1 .5-.5zm-32 0h2a.5.5 0 0 1 .5.5v15a.5.5 0 0 1-.5.5h-2a.5.5 0 0 1-.5-.5v-15a.5.5 0 0 1 .5-.5zm40-7h2a.5.5 0 0 1 .5.5v29a.5.5 0 0 1-.5.5h-2a.5.5 0 0 1-.5-.5v-29a.5.5 0 0 1 .5-.5zm8 3h2a.5.5 0 0 1 .5.5v23a.5.5 0 0 1-.5.5h-2a.5.5 0 0 1-.5-.5v-23a.5.5 0 0 1 .5-.5zm8 5h2a.5.5 0 0 1 .5.5v13a.5.5 0 0 1-.5.5h-2a.5.5 0 0 1-.5-.5v-13a.5.5 0 0 1 .5-.5zm8 4h2a.5.5 0 0 1 .5.5v5a.5.5 0 0 1-.5.5h-2a.5.5 0 0 1-.5-.5v-5a.5.5 0 0 1 .5-.5zm8-1h2a.5.5 0 0 1 .5.5v7a.5.5 0 0 1-.5.5h-2a.5.5 0 0 1-.5-.5v-7a.5.5 0 0 1 .5-.5zm56 0h2a.5.5 0 0 1 .5.5v7a.5.5 0 0 1-.5.5h-2a.5.5 0 0 1-.5-.5v-7a.5.5 0 0 1 .5-.5zm-136 0h2a.5.5 0 0 1 .5.5v7a.5.5 0 0 1-.5.5h-2a.5.5 0 0 1-.5-.5v-7a.5.5 0 0 1 .5-.5zm88-3h2a.5.5 0 0 1 .5.5v13a.5.5 0 0 1-.5.5h-2a.5.5 0 0 1-.5-.5v-13a.5.5 0 0 1 .5-.5zm8-4h2a.5.5 0 0 1 .5.5v21a.5.5 0 0 1-.5.5h-2a.5.5 0 0 1-.5-.5v-21a.5.5 0 0 1 .5-.5zm32 0h2a.5.5 0 0 1 .5.5v21a.5.5 0 0 1-.5.5h-2a.5.5 0 0 1-.5-.5v-21a.5.5 0 0 1 .5-.5zm-16-4h2a.5.5 0 0 1 .5.5v29a.5.5 0 0 1-.5.5h-2a.5.5 0 0 1-.5-.5v-29a.5.5 0 0 1 .5-.5zm8-7h2a.5.5 0 0 1 .5.5v43a.5.5 0 0 1-.5.5h-2a.5.5 0 0 1-.5-.5v-43a.5.5 0 0 1 .5-.5zm-16 3h2a.5.5 0 0 1 .5.5v37a.5.5 0 0 1-.5.5h-2a.5.5 0 0 1-.5-.5v-37a.5.5 0 0 1 .5-.5z"/>
                    </g>
                    <g transform="translate(248 97)">
                        <rect width="121" height="132" x=".5" y=".5" fill="#FFF" stroke="#CFE2F7" rx="2"/>
                        <g transform="translate(18 17)">
                            <rect width="24" height="3" fill="#4A90E2" rx=".5"/>
                            <rect width="24" height="3" y="32" fill="#4A90E2" rx=".5"/>
                            <rect width="16" height="3" y="40" fill="#4A90E2" rx=".5"/>
                            <rect width="16" height="3" y="96" fill="#4A90E2" rx=".5"/>
                            <rect width="35" height="3" x="8" y="48" fill="#8A64C9" rx=".5"/>
                            <rect width="46" height="3" x="33" y="56" fill="#4A90E2" rx=".5"/>
                            <rect width="46" height="3" x="16" y="80" fill="#4A90E2" rx=".5"/>
                            <rect width="14" height="3" x="16" y="56" fill="#F8C41C" rx=".5"/>
                            <rect width="6" height="3" x="8" y="72" fill="#4A90E2" rx=".5"/>
                            <rect width="6" height="3" x="40" y="72" fill="#F8C41C" rx=".5"/>
                            <rect width="20" height="3" x="17" y="72" fill="#4A90E2" rx=".5"/>
                            <rect width="20" height="3" x="8" y="88" fill="#4A90E2" rx=".5"/>
                            <rect width="40" height="3" x="46" y="48" fill="#4A90E2" rx=".5"/>
                            <rect width="14" height="3" x="8" y="8" fill="#4A90E2" rx=".5"/>
                            <rect width="34" height="3" x="25" y="8" fill="#4A90E2" rx=".5"/>
                            <rect width="6" height="3" x="62" y="8" fill="#F8C41C" rx=".5"/>
                            <rect width="34" height="3" x="8" y="16" fill="#4A90E2" rx=".5"/>
                            <rect width="28" height="3" x="45" y="16" fill="#17BE9A" rx=".5"/>
                            <rect width="34" height="3" x="8" y="64" fill="#4A90E2" rx=".5"/>
                            <rect width="34" height="3" x="45" y="64" fill="#17BE9A" rx=".5"/>
                            <rect width="20" height="3" x="8" y="24" fill="#8A64C9" rx=".5"/>
                            <rect width="32" height="3" x="31" y="24" fill="#4A90E2" rx=".5"/>
                        </g>
                    </g>
                </g>
            </g>
        </g>
    </g>
</svg>
